<svg xmlns="http://www.w3.org/2000/svg" viewBox="0 0 496 472">
  <path stroke="#000" stroke-miterlimit="10" stroke-width="7" d="M225 333a57 57 0 0 0-57-57c-27-6-125 51-145 54l-18 3a1 1 0 0 0-2 1c0 5 3 23 36 51l-21 14a1 1 0 0 0 1 2l127 47 19 8a1 1 0 0 0 2-2c-3-7-7-27-2-36 8-12 64-33 60-85Zm-54 19a23 23 0 1 1 22-22 23 23 0 0 1-22 22ZM251 427c11 0 31 6 31 15s-21 26-32 26h-3c-12 0-33-16-33-26s22-15 34-15Z"/>
  <path stroke="#000" stroke-miterlimit="10" stroke-width="7" d="M7 308c24-2 59-26 72-33h1c108-89 158-21 168-2 6-12 28-43 70-43 25 0 58 12 99 45 14 8 49 31 73 33a1 1 0 0 0 1-2c-11-7-25-13-46-34 1-1 26-66 20-116a25 25 0 0 0-31-21c-16 4-40 15-72 42-28-23-69-42-114-40-46-2-85 16-113 40-32-28-56-39-73-42a25 25 0 0 0-30 21c-6 50 19 114 19 115-20 21-35 27-45 35a1 1 0 0 0 1 2Z"/>
  <path stroke="#000" stroke-miterlimit="10" stroke-width="7" d="M330 418c6 9 1 29-1 36a1 1 0 0 0 1 2l19-9 128-46a1 1 0 0 0 0-2l-21-14c34-28 36-47 36-51a1 1 0 0 0-1-1l-19-3c-19-4-118-60-144-54a1 1 0 0 1-1 0 57 57 0 0 0-57 57c-3 51 53 73 60 85Zm-28-88a23 23 0 1 1 23 22 23 23 0 0 1-23-22ZM248 122c35 1 64 6 89 22 5 0 11-6 11-14L334 27l-30 41a9 9 0 0 1-15 0L248 6l-42 62a9 9 0 0 1-15 0l-31-40-12 102c0 9 2 10 9 15 25-17 57-22 91-23Z"/>
</svg>
