<svg xmlns="http://www.w3.org/2000/svg" data-name="Capa 2" viewBox="0 0 496 341"><path stroke="#000" stroke-miterlimit="10" stroke-width="7" d="M225 203a57 57 0 0 0-57-57c-27-7-125 50-144 53l-19 3a1 1 0 0 0-1 2c0 4 2 23 35 50l-21 14a1 1 0 0 0 1 3l127 46 19 9a1 1 0 0 0 2-2c-2-8-7-28-2-37 8-11 64-33 60-84Zm-54 19a23 23 0 1 1 22-23 23 23 0 0 1-22 23ZM251 296c11 0 31 6 31 16s-21 26-32 26h-3c-12 0-33-17-33-27s22-15 34-15Z"/><path stroke="#000" stroke-miterlimit="10" stroke-width="7" d="M7 178c24-3 59-26 73-34 108-88 158-21 168-2 6-12 28-42 70-42 25 0 58 11 99 45 14 7 49 31 73 33a1 1 0 0 0 1-2c-11-8-25-14-46-35 1-1 26-65 20-115a25 25 0 0 0-31-21c-16 3-40 14-72 42-28-24-68-43-114-41-46-2-85 17-113 41C103 19 79 8 62 4a25 25 0 0 0-30 21c-6 50 19 115 19 116-20 21-35 27-45 34a1 1 0 0 0 1 3Z"/><path stroke="#000" stroke-miterlimit="10" stroke-width="7" d="M330 287c6 9 1 29-1 37a1 1 0 0 0 1 1l19-8 128-47a1 1 0 0 0 0-2l-21-14c34-28 36-46 36-51a1 1 0 0 0-1-1l-19-3c-19-3-118-60-144-53a1 1 0 0 1-1 0 57 57 0 0 0-57 57c-3 51 53 73 60 84Zm-28-88a23 23 0 1 1 23 23 23 23 0 0 1-23-23Z"/></svg>