<svg id="Capa_2" data-name="Capa 2" xmlns="http://www.w3.org/2000/svg" viewBox="0 0 495.5 341.27"><path d="M227.53,296.34a57,57,0,0,0-56.85-57,1.09,1.09,0,0,1-.26,0c-26.62-6.52-125,50.32-144.4,53.38-12.44,2-17.13,2.69-18.9,3A1.3,1.3,0,0,0,6,297c0,4.64,2.45,23,35.69,50.8l-20.88,14a1.24,1.24,0,0,0,.26,2.2l127.59,46.61,0,0q9.09,4.14,18.95,8.38a1.34,1.34,0,0,0,1.8-1.63c-2.4-7.44-7.34-27.41-1.49-36.6C175.21,369.38,231.15,347.62,227.53,296.34Zm-54.39,19.17a22.8,22.8,0,1,1,22.79-22.8A22.8,22.8,0,0,1,173.14,315.51Z" transform="translate(-2.5 -93.46)" stroke="#000" stroke-miterlimit="10" stroke-width="7"/><path d="M253.23,389.79c11.16,0,31.6,5.81,31.6,15.54s-21.47,25.9-32.63,25.9h-3.11c-11.16,0-32.64-16.41-32.64-26.42s22.52-15,33.68-15Z" transform="translate(-2.5 -93.46)" stroke="#000" stroke-miterlimit="10" stroke-width="7"/><path d="M9.49,271C33.16,268.83,68.42,245.1,82,237.73l.14-.09c108.7-88.58,158.41-20.83,168.55-2,6.31-11.7,28.11-42.18,69.87-42.18,25.35,0,58,11.22,99.09,44.67l.14.1c13.53,7.36,48.79,31.1,72.46,33.24a1.23,1.23,0,0,0,.83-2.23c-10.32-7.39-24.43-13.66-45.13-34.65h0c.37-1,25.42-65.18,19.3-115.1A25,25,0,0,0,436.77,98.1c-16.44,3.85-40.7,14.71-72.12,42.37C336.37,116.62,296,97.68,250.11,99.86,204.27,97.68,165.32,116.15,137,140c-31.53-27.74-55.84-38.58-72.28-42.39a24.86,24.86,0,0,0-30.25,21.2c-6.19,49.95,18.91,114.3,19.28,115.27h0c-20.7,21-34.81,27.26-45.13,34.65A1.24,1.24,0,0,0,9.49,271Z" transform="translate(-2.5 -93.46)" stroke="#000" stroke-miterlimit="10" stroke-width="7"/><path d="M332.55,380.65c5.85,9.19.91,29.17-1.49,36.61a1.33,1.33,0,0,0,1.8,1.62q9.86-4.23,18.95-8.38h0l127.59-46.61a1.25,1.25,0,0,0,.26-2.21l-20.88-14c33.24-27.8,35.67-46.16,35.69-50.8a1.31,1.31,0,0,0-1.12-1.31c-1.77-.27-6.46-1-18.9-3-19.41-3.07-117.78-59.9-144.4-53.39a1.09,1.09,0,0,1-.26,0,57,57,0,0,0-56.85,57C269.35,347.5,325.29,369.26,332.55,380.65Zm-28-88.06a22.8,22.8,0,1,1,22.79,22.79A22.79,22.79,0,0,1,304.57,292.59Z" transform="translate(-2.5 -93.46)" stroke="#000" stroke-miterlimit="10" stroke-width="7"/></svg>